<?xml version="1.0" encoding="UTF-8" standalone="no"?>
<!-- Created with Inkscape (http://www.inkscape.org/) -->

<svg
   width="59.999992mm"
   height="60.000004mm"
   viewBox="0 0 59.999992 60.000004"
   version="1.1"
   id="svg1"
   xmlns="http://www.w3.org/2000/svg"
   xmlns:svg="http://www.w3.org/2000/svg">
  <defs
     id="defs1" />
  <g
     id="layer1"
     transform="translate(-75,-118.5)">
    <rect
       style="fill:#ff0000;fill-opacity:1;stroke:none;stroke-width:0.421218;stroke-opacity:1;paint-order:stroke fill markers"
       id="rect1"
       width="60"
       height="60"
       x="75"
       y="118.5"
       ry="8.9178104" />
    <path
       id="text1"
       style="font-size:50.8px;font-family:Budge;-inkscape-font-specification:Budge;fill:#ffffff;stroke:none;stroke-width:0.265;stroke-opacity:1;paint-order:stroke fill markers"
       d="m 118.71596,127.41784 c -5.4356,0 -10.15995,3.25134 -13.71596,7.97574 -1.778,-0.6604 -3.91158,-1.11776 -6.85798,-1.11776 -9.144,0 -15.3417,6.0962 -15.3417,12.8018 0,4.826 3.4039,8.43256 7.9251,8.43256 3.6068,0 7.21356,-2.38749 7.36596,-7.72149 -0.4064,0.254 -0.91465,0.40669 -1.42265,0.40669 -1.4732,0 -2.94608,-1.11804 -2.94608,-3.20084 0,-2.54 1.72711,-5.07979 6.04511,-5.07979 0.7112,0 1.47285,0.10185 2.28565,0.25425 -2.4384,4.7752 -3.80958,10.26118 -3.80958,15.34118 0,8.2296 4.26686,14.07201 12.14086,14.07201 5.9944,0 11.43031,-4.77526 11.43031,-11.17606 0,-3.6068 -1.778,-6.55309 -5.1816,-6.55309 -0.254,0 -0.50807,-1.6e-4 -0.81287,0.0506 0.8636,2.8448 -0.71119,7.21351 -4.01319,7.21351 -2.7432,0 -4.16564,-1.98115 -4.16564,-6.19755 0,-2.5908 0.81293,-6.24852 2.13372,-9.65212 1.4732,0.4064 3.14944,0.71106 5.23224,0.71106 6.35,0 12.19202,-4.01276 12.19202,-9.49916 0,-1.70654 -0.64564,-3.33793 -1.87223,-4.60178 -1.43884,-1.48254 -3.67727,-2.45979 -6.61149,-2.45979 z m -0.71106,6.60425 c 1.3716,0 2.28616,0.76167 2.28616,1.77767 0,2.0828 -2.64173,3.30212 -5.63893,3.30212 -0.9652,0 -1.8289,-0.10169 -2.6417,-0.30489 1.6764,-2.794 3.75927,-4.7749 5.99447,-4.7749 z" />
  </g>
</svg>
