<?xml version="1.0" encoding="UTF-8" standalone="no"?>
<!-- Created with Inkscape (http://www.inkscape.org/) -->

<svg
   width="127.78164mm"
   height="49.697746mm"
   viewBox="0 0 127.78164 49.697746"
   version="1.1"
   id="svg1"
   xmlns="http://www.w3.org/2000/svg"
   xmlns:svg="http://www.w3.org/2000/svg">
  <defs
     id="defs1" />
  <g
     id="layer1"
     transform="translate(-42.87955,-46.732544)">
    <path
       id="text1"
       style="font-size:50.8px;font-family:Budge;-inkscape-font-specification:Budge;fill:#ff0000;stroke-width:0.265;stroke-opacity:0;paint-order:stroke fill markers"
       d="m 78.79519,46.732548 c -5.4356,0 -10.159958,3.251341 -13.715958,7.975741 -1.778,-0.6604 -3.91158,-1.117762 -6.85798,-1.117762 -9.144,0 -15.341699,6.096203 -15.341699,12.801803 0,4.826 3.403898,8.43256 7.925098,8.43256 3.6068,0 7.213559,-2.387492 7.365959,-7.721492 -0.4064,0.254 -0.914653,0.406693 -1.422653,0.406693 -1.4732,0 -2.946073,-1.118038 -2.946073,-3.200838 0,-2.54 1.727109,-5.079793 6.045109,-5.079793 0.7112,0 1.472849,0.101848 2.285649,0.254248 -2.4384,4.7752 -3.809587,10.261182 -3.809587,15.341182 0,8.2296 4.266861,14.072009 12.140861,14.072009 5.9944,0 11.43031,-4.775262 11.43031,-11.176062 0,-3.6068 -1.777996,-6.553088 -5.181596,-6.553088 -0.254,0 -0.50807,-1.57e-4 -0.81287,0.05064 0.8636,2.8448 -0.711192,7.213513 -4.013192,7.213513 -2.7432,0 -4.165637,-1.981154 -4.165637,-6.197554 0,-2.5908 0.81292,-6.248524 2.13372,-9.652124 1.4732,0.4064 3.149439,0.711067 5.232239,0.711067 6.35,0 12.19202,-4.012762 12.19202,-9.499162 0,-1.70655 -0.645644,-3.337935 -1.872237,-4.601786 -1.438841,-1.482547 -3.677265,-2.459798 -6.611483,-2.459798 z m 37.69382,3.149679 c -3.1496,0 -5.33404,2.184441 -5.33404,5.334041 0,2.54 1.77809,4.318083 4.31809,4.318083 3.1496,0 5.33404,-2.184442 5.33404,-5.334042 0,-2.54 -1.77809,-4.318082 -4.31809,-4.318082 z m -19.609135,0.457336 c -2.0828,0 -8.737451,1.117344 -8.737451,3.758944 0,1.4224 1.371356,1.219278 0.914156,3.149678 l -5.48597,20.625098 -0.559139,2.08256 c -1.1684,4.064 -0.457031,7.772652 3.454569,7.772652 2.4384,0 6.045109,-1.930354 6.045109,-6.197554 v -0.609782 c -1.524,0 -1.473316,-1.219436 -0.965316,-3.099036 l 2.286166,-8.127669 c 0.5588,-0.8128 1.523851,-1.270207 2.387451,-1.270207 0.8128,0 1.168673,0.45725 0.914673,1.32085 l -2.743502,10.210746 c -1.1684,4.064 -0.457031,7.772652 3.454569,7.772652 2.4384,0 6.04511,-1.930354 6.04511,-6.197554 v -0.609782 c -1.524,0 -1.47332,-1.219436 -0.96532,-3.099036 l 2.13372,-7.975224 c 1.016,-3.81 0.50806,-8.229988 -3.86074,-8.229988 -2.387605,0 -4.571688,1.270372 -6.451288,3.556372 h -0.05116 c 0.8128,-2.2352 1.524322,-4.419782 2.235522,-6.959782 l 0.253732,-0.914156 1.320849,-4.673617 c 0.3556,-1.3208 -0.05094,-2.286165 -1.62574,-2.286165 z m -18.795752,2.997233 c 1.3716,0 2.286165,0.761669 2.286165,1.777669 0,2.0828 -2.641732,3.302124 -5.638932,3.302124 -0.9652,0 -1.828899,-0.101691 -2.641699,-0.304891 1.6764,-2.794 3.759266,-4.774902 5.994466,-4.774902 z m 38.150647,8.280115 c -2.0828,0 -8.73746,1.11786 -8.73746,3.75946 0,1.4224 1.37136,1.219279 0.91416,3.149679 l -3.04788,11.429793 c -1.1684,4.064 -0.45703,7.772652 3.45457,7.772652 2.4384,0 6.04511,-1.930354 6.04511,-6.197554 v -0.609782 c -1.524,0 -1.47331,-1.219436 -0.96531,-3.099036 l 3.96255,-13.919047 c 0.3556,-1.3208 -0.0509,-2.286165 -1.62574,-2.286165 z m 10.00765,0 c -2.0828,0 -7.72149,1.11786 -7.72149,3.75946 0,1.4224 1.37136,1.219279 0.91416,3.149679 l -2.48926,9.347233 -0.55862,2.08256 c -1.1684,4.064 -0.45703,7.772652 3.45457,7.772652 2.4384,0 6.04511,-1.930354 6.04511,-6.197554 v -0.609782 c -1.524,0 -1.47332,-1.219436 -0.96532,-3.099036 l 2.38746,-8.381917 c 0.3048,-0.6604 0.813,-1.015959 1.2702,-1.015959 0.5588,0 0.81298,0.45725 0.60978,1.32085 -0.1524,0.7112 -0.30489,1.422317 -0.30489,2.031917 0,1.6256 0.71128,2.895947 3.14968,2.895947 3.6068,0 5.48649,-3.91174 5.48649,-7.97574 0,-2.7432 -1.06695,-5.08031 -3.96255,-5.08031 -2.3876,0 -4.623,1.676573 -6.4518,4.622973 h -0.0507 l 0.66043,-2.336808 c 0.3048,-1.3208 -0.0509,-2.286165 -1.4733,-2.286165 z m 20.72639,0 c -2.0828,0 -8.73745,1.11786 -8.73745,3.75946 0,1.4224 1.37135,1.219279 0.91415,3.149679 l -2.18436,8.43256 c -1.5748,6.1468 -0.76167,10.769885 3.40393,10.769885 2.3368,0 4.57173,-1.524264 6.60373,-4.927864 3e-4,7.1e-5 7.3e-4,4.46e-4 0.001,5.16e-4 1.15588,7.620183 8.73923,13.163979 14.67662,13.601754 4.81292,0.35486 8.66029,-2.774321 8.99274,-7.283276 0.26522,-3.597036 -1.85092,-7.369531 -7.15926,-7.913729 0.22343,0.423974 0.33812,0.941866 0.30076,1.44849 -0.10832,1.469211 -1.33142,2.855828 -3.40858,2.702678 -3.87942,-0.286033 -5.28368,-4.121055 -4.36097,-7.534941 l 2.6417,-9.24543 1.32085,-4.673617 c 0.3556,-1.3208 -0.0509,-2.286165 -1.62574,-2.286165 -2.0828,0 -8.73745,1.11786 -8.73745,3.75946 0,1.4224 1.37135,1.219279 0.91415,3.149679 l -2.235,8.381917 c -0.5588,1.6256 -1.67655,3.149679 -2.79415,3.149679 -0.8128,0 -1.37126,-0.813036 -0.60926,-3.099036 l 2.38745,-8.381917 1.32085,-4.673617 c 0.3556,-1.3208 -0.0509,-2.286165 -1.62574,-2.286165 z" />
  </g>
</svg>
